<?xml version="1.0" encoding="UTF-8" standalone="no"?>
<svg xmlns:ffdec="https://www.free-decompiler.com/flash" xmlns:xlink="http://www.w3.org/1999/xlink" ffdec:objectType="shape" height="86.45px" width="89.65px" xmlns="http://www.w3.org/2000/svg">
  <g transform="matrix(1.0, 0.0, 0.0, 1.0, 13.6, 11.4)">
    <path d="M74.9 -10.25 L59.9 -10.25 29.75 -10.25 -12.45 -10.25 -12.45 -2.45 -12.45 20.75 -12.45 30.6 -12.45 34.3 -12.45 73.9 29.75 73.9 59.9 73.9 74.9 73.9 74.9 34.3 74.9 20.75 74.9 -10.25 M59.9 -11.4 L76.05 -11.4 76.05 20.75 76.05 34.3 76.05 75.05 59.9 75.05 29.75 75.05 -13.6 75.05 -13.6 34.3 -13.6 30.6 -13.6 20.75 -13.6 -2.45 -13.6 -11.4 29.75 -11.4 59.9 -11.4 M69.55 -7.7 L69.55 -4.9 73.5 -4.9 73.5 20.75 73.5 34.3 73.5 68.55 69.55 68.55 69.55 71.35 69.55 72.5 59.9 72.5 29.75 72.5 -7.1 72.5 -7.1 71.35 -7.1 68.55 -11.05 68.55 -11.05 34.3 -11.05 30.6 -11.05 20.75 -11.05 -2.45 -11.05 -4.9 -7.1 -4.9 -7.1 -7.7 -7.1 -8.85 29.75 -8.85 59.9 -8.85 69.55 -8.85 69.55 -7.7 M72.35 -3.75 L68.4 -3.75 68.4 -7.7 59.9 -7.7 29.75 -7.7 -5.95 -7.7 -5.95 -3.75 -9.9 -3.75 -9.9 -2.45 -9.9 20.75 -9.9 30.6 -9.9 34.3 -9.9 67.4 -5.95 67.4 -5.95 71.35 29.75 71.35 59.9 71.35 68.4 71.35 68.4 67.4 72.35 67.4 72.35 34.3 72.35 20.75 72.35 -3.75" fill="#45362d" fill-rule="evenodd" stroke="none"/>
  </g>
</svg>
