<?xml version="1.0" encoding="UTF-8" standalone="no"?>
<svg xmlns:ffdec="https://www.free-decompiler.com/flash" xmlns:xlink="http://www.w3.org/1999/xlink" ffdec:objectType="frame" height="32.95px" width="93.2px" xmlns="http://www.w3.org/2000/svg">
  <g transform="matrix(1.0, 0.0, 0.0, 1.0, 2.5, 10.5)">
    <use ffdec:characterId="661" height="32.95" transform="matrix(1.0, 0.0, 0.0, 1.0, 0.0, 0.0)" width="92.4" xlink:href="#shape0"/>
  </g>
  <defs>
    <g id="shape0">
      <path d="M1.2 -10.5 L1.2 10.0 1.2 14.8 5.15 14.8 5.15 18.75 73.55 18.75 89.9 18.75 89.9 19.9 73.55 19.9 4.0 19.9 4.0 18.75 4.0 15.95 0.05 15.95 0.05 10.0 0.05 -10.5 1.2 -10.5 M89.9 21.3 L89.9 22.45 73.55 22.45 -2.5 22.45 -2.5 10.0 -2.5 -10.5 -1.35 -10.5 -1.35 10.0 -1.35 21.3 73.55 21.3 89.9 21.3" fill="#0066ff" fill-rule="evenodd" stroke="none"/>
    </g>
  </defs>
</svg>
